<?xml version="1.0" standalone="no"?>
<!DOCTYPE svg PUBLIC "-//W3C//DTD SVG 20010904//EN"
 "http://www.w3.org/TR/2001/REC-SVG-20010904/DTD/svg10.dtd">
<svg version="1.0" xmlns="http://www.w3.org/2000/svg"
 width="32.000000pt" height="32.000000pt" viewBox="0 0 32.000000 32.000000"
 preserveAspectRatio="xMidYMid meet">

<g transform="translate(0.000000,32.000000) scale(0.100000,-0.100000)"
fill="#000000" stroke="none">
<path d="M95 308 c-11 -31 -65 -258 -65 -272 0 -9 6 -16 14 -16 8 0 17 -6 19
-12 4 -10 6 -10 6 0 1 17 127 17 134 0 4 -10 6 -10 6 0 1 6 8 12 16 12 19 0
19 17 -1 92 -14 55 -14 62 1 79 10 10 27 19 39 21 29 4 30 53 1 53 -12 0 -21
-8 -23 -20 -5 -22 -20 -45 -32 -45 -4 0 -14 26 -22 58 -13 56 -15 57 -51 60
-24 2 -39 -1 -42 -10z m78 -70 c15 -57 15 -64 0 -80 -26 -29 -32 -21 -36 50
l-3 67 -2 -77 -2 -78 -30 0 c-16 0 -30 2 -30 5 0 3 10 44 21 90 19 75 24 85
44 85 19 0 25 -9 38 -62z m27 -103 c0 -9 -9 -15 -21 -15 -18 0 -19 2 -9 15 7
8 16 15 21 15 5 0 9 -7 9 -15z m14 -57 c3 -13 6 -26 6 -30 0 -5 -38 -8 -85 -8
-47 0 -85 3 -85 8 0 4 3 17 6 30 6 20 12 22 79 22 67 0 73 -2 79 -22z"/>
</g>
</svg>
