<?xml version="1.0" encoding="UTF-8"?>
<svg xmlns="http://www.w3.org/2000/svg" xmlns:xlink="http://www.w3.org/1999/xlink" width="36px" height="0px" viewBox="0 0 384 384" version="1.1">
<g id="surface1">
<path style=" stroke:none;fill-rule:nonzero;fill:rgb(0%,0%,0%);fill-opacity:1;" d="M 335.34375 114.082031 C 330.527344 109.265625 322.71875 109.265625 317.902344 114.082031 L 294.628906 137.355469 L 293.480469 136.210938 C 288.664062 131.394531 280.855469 131.394531 276.042969 136.210938 C 271.226562 141.027344 271.226562 148.832031 276.042969 153.648438 L 277.1875 154.796875 L 186.007812 245.972656 L 186.007812 100.015625 C 186.007812 93.207031 180.488281 87.683594 173.679688 87.683594 C 166.867188 87.683594 161.347656 93.207031 161.347656 100.015625 L 161.347656 263.855469 L 81.984375 263.855469 L 105.054688 88.800781 C 105.125 88.289062 105.367188 87.816406 105.742188 87.464844 L 172.527344 25.085938 C 173.171875 24.484375 174.183594 24.484375 174.828125 25.085938 L 241.613281 87.464844 C 241.992188 87.816406 242.234375 88.289062 242.300781 88.800781 L 246.527344 120.851562 C 247.417969 127.601562 253.601562 132.359375 260.363281 131.464844 C 267.113281 130.574219 271.867188 124.378906 270.976562 117.628906 L 266.753906 85.578125 C 265.941406 79.414062 262.992188 73.683594 258.445312 69.441406 L 191.660156 7.0625 C 181.578125 -2.351562 165.78125 -2.355469 155.695312 7.0625 L 88.910156 69.441406 C 84.367188 73.683594 81.417969 79.417969 80.605469 85.578125 L 45.28125 353.597656 C 43.15625 369.703125 55.710938 384 71.9375 384 L 275.421875 384 C 291.667969 384 304.199219 369.683594 302.078125 353.597656 L 285.316406 226.425781 C 284.429688 219.671875 278.242188 214.921875 271.480469 215.8125 C 264.730469 216.699219 259.976562 222.894531 260.867188 229.648438 L 265.375 263.855469 L 203.007812 263.855469 L 294.628906 172.234375 L 295.777344 173.382812 C 300.589844 178.199219 308.398438 178.199219 313.214844 173.382812 C 318.03125 168.566406 318.03125 160.757812 313.214844 155.945312 L 312.066406 154.796875 L 335.34375 131.519531 C 340.15625 126.703125 340.15625 118.894531 335.34375 114.082031 Z M 268.625 288.515625 L 277.628906 356.820312 C 277.710938 357.457031 277.515625 358.097656 277.097656 358.578125 C 276.671875 359.0625 276.0625 359.339844 275.421875 359.339844 L 71.9375 359.339844 C 71.296875 359.339844 70.6875 359.0625 70.265625 358.582031 C 69.839844 358.097656 69.648438 357.457031 69.730469 356.820312 L 78.734375 288.515625 Z M 268.625 288.515625 "/>
</g>
</svg>
